<?xml version="1.0" standalone="no"?>
<!DOCTYPE svg PUBLIC "-//W3C//DTD SVG 20010904//EN"
 "http://www.w3.org/TR/2001/REC-SVG-20010904/DTD/svg10.dtd">
<svg version="1.0" xmlns="http://www.w3.org/2000/svg"
 width="800.000000pt" height="800.000000pt" viewBox="0 0 800.000000 800.000000"
 preserveAspectRatio="xMidYMid meet">
<metadata>
Created by potrace 1.11, written by Peter Selinger 2001-2013
</metadata>
<g transform="translate(0.000000,800.000000) scale(0.100000,-0.100000)"
fill="#000000" stroke="none">
<path d="M6760 7088 c-38 -17 -74 -31 -220 -88 -74 -29 -139 -57 -144 -62 -6
-4 -17 -8 -25 -8 -9 -1 -34 -9 -56 -20 -22 -11 -44 -19 -48 -20 -5 0 -23 -7
-40 -14 -18 -8 -192 -78 -387 -156 -195 -77 -364 -145 -375 -150 -11 -5 -146
-59 -300 -120 -154 -61 -289 -115 -300 -120 -11 -5 -164 -66 -340 -135 -176
-70 -333 -133 -349 -141 -16 -8 -33 -14 -38 -14 -5 0 -28 -8 -51 -19 -23 -10
-96 -40 -162 -66 -66 -26 -129 -51 -140 -55 -11 -5 -56 -23 -100 -41 -44 -17
-93 -37 -110 -44 -103 -42 -201 -79 -207 -77 -5 1 -8 -3 -8 -8 0 -6 -7 -10
-16 -10 -9 0 -30 -6 -47 -14 -18 -8 -95 -40 -172 -71 -77 -30 -149 -59 -160
-64 -11 -5 -47 -19 -80 -31 -33 -13 -76 -30 -95 -39 -19 -8 -43 -16 -53 -18
-10 -2 -28 -9 -40 -17 -12 -8 -40 -19 -62 -26 -22 -7 -49 -19 -60 -25 -11 -7
-33 -16 -50 -20 -38 -10 -33 -9 -80 -30 -55 -24 -88 -38 -100 -40 -5 -2 -77
-31 -160 -65 -82 -34 -154 -62 -160 -64 -5 -1 -20 -8 -33 -14 -12 -7 -22 -10
-22 -6 0 3 -6 2 -12 -3 -11 -8 -171 -75 -188 -79 -3 0 -14 -4 -25 -9 -98 -40
-362 -147 -370 -149 -5 -2 -19 -7 -30 -11 -11 -4 -58 -23 -105 -42 -115 -46
-145 -62 -160 -87 -24 -37 -460 -916 -460 -926 0 -6 -4 -10 -10 -10 -5 0 -9
-3 -8 -7 2 -11 -64 -146 -75 -154 -5 -3 -8 -9 -7 -13 1 -4 -75 -162 -169 -351
-94 -189 -171 -349 -171 -354 0 -5 -3 -11 -7 -13 -5 -1 -46 -80 -92 -175 -78
-159 -83 -174 -77 -215 11 -73 62 -111 176 -132 14 -2 59 -11 100 -20 41 -8
87 -17 103 -20 15 -3 35 -7 45 -10 9 -3 34 -7 54 -10 21 -2 41 -7 45 -9 4 -3
24 -8 43 -11 57 -9 90 -16 180 -36 47 -10 101 -22 120 -25 19 -3 42 -8 50 -10
8 -2 29 -7 45 -10 17 -2 41 -7 55 -10 14 -3 36 -8 50 -11 14 -2 81 -16 150
-30 69 -15 136 -28 150 -31 27 -5 266 -53 290 -58 15 -4 191 -39 240 -49 14
-3 57 -12 95 -20 39 -8 86 -18 105 -21 19 -3 51 -10 70 -15 19 -5 49 -11 65
-14 27 -4 90 -17 155 -31 14 -3 39 -8 55 -10 17 -3 37 -8 45 -10 8 -2 27 -6
43 -9 15 -3 35 -7 45 -10 9 -3 33 -8 52 -10 19 -3 78 -15 130 -26 52 -12 118
-25 145 -31 28 -5 61 -11 75 -14 14 -3 48 -9 75 -15 28 -6 59 -12 70 -14 11
-3 76 -16 145 -31 69 -14 138 -28 154 -30 15 -2 37 -7 48 -11 11 -3 30 -7 41
-9 12 -1 33 -5 47 -9 14 -3 36 -8 50 -10 14 -3 34 -7 45 -9 11 -2 38 -8 60
-12 22 -5 45 -9 50 -10 30 -7 374 -77 395 -81 14 -3 67 -14 118 -24 51 -11
109 -23 129 -26 20 -3 46 -10 59 -14 12 -5 24 -7 27 -4 2 2 16 0 30 -5 14 -5
45 -13 68 -16 24 -4 82 -15 129 -25 47 -10 99 -21 115 -24 42 -8 76 -15 105
-21 14 -4 36 -8 50 -11 14 -2 57 -11 95 -19 39 -8 81 -16 95 -19 39 -7 179
-36 243 -51 31 -7 60 -14 62 -14 3 -1 6 -1 8 -2 1 0 13 -2 27 -4 14 -2 36 -6
50 -9 48 -10 75 -16 105 -22 17 -4 40 -8 52 -10 11 -1 29 -5 40 -8 10 -3 32
-8 48 -11 17 -2 41 -7 55 -10 50 -11 126 -26 160 -31 19 -3 38 -8 41 -10 4 -2
24 -6 45 -10 21 -3 67 -12 103 -20 36 -9 82 -17 101 -20 19 -3 42 -8 50 -11 8
-3 22 -7 30 -8 8 -2 33 -6 55 -9 22 -4 48 -9 57 -12 30 -9 62 -15 96 -19 18
-2 43 -7 55 -11 12 -4 31 -8 42 -10 19 -3 250 -50 290 -60 11 -3 31 -7 45 -9
26 -4 34 -6 130 -26 30 -7 64 -13 75 -15 11 -2 52 -10 90 -18 39 -8 81 -17 95
-20 14 -2 45 -9 70 -15 25 -5 56 -12 70 -14 14 -3 72 -15 130 -27 112 -24 189
-22 215 4 8 8 18 16 23 18 4 1 17 17 29 33 17 24 20 41 17 85 -2 30 -6 66 -9
80 -3 14 -7 37 -10 53 -3 15 -8 42 -11 60 -3 17 -7 41 -8 52 -2 11 -6 34 -9
50 -3 17 -9 46 -11 65 -3 19 -7 44 -10 55 -2 11 -7 42 -10 68 -4 27 -10 59
-12 70 -3 12 -7 33 -9 47 -2 14 -18 108 -35 210 -17 102 -33 201 -36 220 -2
19 -8 55 -13 80 -6 25 -15 79 -22 120 -6 41 -13 84 -15 95 -2 11 -6 34 -9 50
-3 17 -7 44 -10 60 -3 17 -8 46 -11 65 -3 19 -14 85 -24 145 -10 61 -22 128
-25 150 -9 50 -13 73 -19 105 -2 14 -9 57 -15 95 -6 39 -13 81 -16 95 -3 14
-8 41 -11 60 -2 19 -7 46 -9 60 -9 51 -18 105 -30 185 -3 17 -9 53 -14 80 -17
91 -36 203 -46 265 -2 14 -20 122 -40 240 -20 118 -38 226 -40 240 -4 24 -40
236 -50 295 -3 17 -8 41 -10 55 -3 14 -8 42 -11 64 -3 21 -8 48 -10 60 -6 24
-11 55 -18 106 -4 33 -9 63 -22 135 -3 17 -8 44 -10 60 -9 58 -11 70 -18 105
-4 19 -9 46 -11 60 -5 38 -15 99 -25 155 -5 28 -12 68 -15 90 -9 53 -15 90
-25 145 -5 24 -6 48 -4 52 3 5 2 8 -3 8 -4 0 -8 10 -9 23 0 12 -4 40 -7 62
-21 115 -37 214 -42 250 -3 22 -10 60 -15 85 -5 25 -12 61 -15 80 -2 19 -7 46
-9 60 -2 14 -10 59 -16 100 -7 41 -14 84 -16 95 -11 56 -26 144 -29 175 -3 19
-7 48 -11 65 -4 16 -8 39 -10 50 -2 11 -5 34 -8 50 -3 17 -8 48 -11 70 -3 22
-8 51 -10 65 -3 14 -8 41 -11 60 -7 44 -30 94 -52 113 -40 34 -132 47 -182 25z
m-189 -415 c-30 -100 -64 -210 -69 -218 -4 -5 -7 -15 -8 -20 -2 -12 -72 -242
-81 -265 -3 -8 -8 -21 -10 -27 -1 -7 -5 -19 -6 -25 -2 -7 -7 -20 -10 -28 -3
-8 -24 -76 -47 -150 -23 -74 -44 -142 -47 -150 -3 -8 -7 -19 -8 -25 -4 -14
-105 -337 -112 -355 -3 -8 -8 -21 -10 -27 -1 -7 -5 -19 -6 -25 -2 -7 -7 -20
-10 -28 -3 -8 -24 -76 -47 -150 -23 -74 -50 -160 -60 -190 -10 -30 -40 -122
-65 -205 -26 -82 -63 -199 -82 -260 -19 -60 -41 -132 -49 -160 -9 -27 -19 -59
-24 -70 -5 -11 -12 -31 -15 -45 -16 -61 -108 -346 -114 -352 -3 -3 -24 -9 -46
-12 -52 -7 -83 -14 -93 -19 -4 -3 -23 -8 -43 -11 -20 -3 -92 -17 -160 -32 -68
-14 -135 -28 -149 -30 -14 -2 -46 -9 -71 -15 -26 -6 -53 -12 -60 -13 -8 -2
-30 -6 -49 -10 -19 -4 -44 -9 -55 -11 -11 -2 -20 -4 -20 -5 0 -1 -11 -3 -25
-4 -14 -2 -35 -6 -47 -10 -13 -4 -35 -10 -50 -12 -16 -3 -91 -19 -168 -35 -77
-16 -151 -31 -165 -34 -14 -2 -56 -11 -95 -20 -38 -8 -81 -17 -95 -20 -14 -3
-34 -7 -45 -9 -84 -18 -184 -39 -205 -43 -14 -2 -77 -15 -140 -29 -193 -42
-188 -42 -277 9 -43 24 -179 101 -303 169 -231 129 -788 439 -850 475 -45 26
-115 65 -215 120 -44 24 -87 48 -95 53 -8 5 -91 52 -185 103 -93 52 -188 105
-210 117 -22 12 -74 41 -115 63 -41 22 -83 45 -92 52 -14 9 29 30 250 119 147
59 274 109 282 111 13 3 133 51 225 90 79 34 353 141 367 144 6 2 62 25 143
60 11 5 72 30 135 54 63 25 129 51 145 58 17 7 32 13 35 14 3 1 18 7 33 13 16
7 30 12 31 12 2 0 21 8 42 17 22 9 44 18 49 19 6 2 123 49 260 104 138 56 255
103 260 104 6 2 21 8 35 13 14 6 50 21 80 32 30 12 64 26 75 31 11 5 90 37
175 70 85 34 169 67 185 75 17 7 80 32 140 55 61 23 124 48 140 56 17 7 89 36
160 65 72 28 141 56 155 62 14 5 30 11 35 13 8 2 479 189 550 219 11 5 22 9
25 10 8 3 89 36 190 78 14 5 30 11 35 13 6 1 152 59 325 129 173 70 320 128
325 130 6 1 26 9 45 17 78 34 80 34 71 1z m219 -455 c4 -24 12 -72 18 -108 6
-36 14 -82 18 -104 3 -21 8 -48 10 -60 5 -25 11 -57 18 -106 3 -19 8 -46 11
-60 3 -14 8 -41 10 -60 3 -19 7 -46 10 -60 3 -14 8 -43 10 -64 3 -22 10 -59
15 -83 6 -23 10 -46 9 -50 -1 -5 0 -10 1 -13 3 -8 7 -32 14 -75 12 -81 18
-120 22 -140 2 -11 7 -33 9 -50 13 -72 25 -142 29 -170 6 -39 36 -212 41 -245
3 -14 12 -70 21 -125 8 -55 18 -111 20 -125 3 -14 7 -38 10 -55 3 -16 9 -55
14 -85 5 -30 12 -73 16 -95 3 -22 10 -60 15 -85 5 -25 11 -61 13 -80 3 -19 8
-51 12 -70 9 -50 13 -72 17 -100 2 -14 7 -38 10 -55 8 -36 19 -110 23 -145 1
-14 3 -25 4 -25 1 0 3 -9 5 -20 3 -24 23 -143 29 -170 2 -11 9 -54 16 -95 6
-41 14 -86 16 -100 2 -14 7 -41 10 -60 3 -19 12 -71 19 -115 8 -44 17 -98 20
-120 3 -22 10 -62 15 -90 5 -27 12 -63 15 -80 2 -16 7 -41 9 -55 3 -14 8 -43
11 -65 3 -22 7 -51 10 -65 11 -60 16 -87 20 -120 3 -19 9 -57 15 -85 10 -53
20 -113 25 -155 2 -14 7 -41 11 -60 8 -42 14 -78 18 -105 3 -23 16 -100 22
-130 3 -11 7 -38 10 -60 7 -54 11 -76 18 -105 3 -14 8 -43 11 -64 5 -37 8 -51
20 -112 5 -22 4 -24 -7 -13 -17 18 -65 82 -107 144 -19 28 -40 55 -46 61 -5 6
-28 37 -50 70 -22 32 -46 65 -53 72 -6 7 -33 44 -59 80 -26 37 -51 69 -55 70
-5 2 -8 10 -8 17 0 7 -4 15 -8 17 -4 2 -23 26 -42 53 -19 28 -38 52 -41 55 -8
7 -292 398 -304 418 -5 9 -12 19 -15 22 -3 3 -30 39 -60 80 -30 41 -58 77 -62
78 -5 2 -8 8 -8 12 0 8 -106 156 -145 203 -8 9 -15 21 -15 26 0 5 -3 11 -8 13
-4 1 -69 89 -145 193 -76 105 -144 199 -153 210 -109 143 -163 224 -160 241 2
10 11 39 19 64 29 87 90 285 88 285 -2 0 4 18 13 40 8 22 45 135 81 250 36
116 75 238 86 272 11 35 22 71 24 80 2 10 9 32 15 48 7 17 20 57 30 90 10 33
32 105 50 160 17 55 33 105 34 110 2 6 6 17 9 25 5 14 75 237 119 380 11 36
29 92 40 125 11 33 21 67 23 75 2 8 33 107 69 220 36 113 66 211 66 219 0 27
13 1 20 -41z m-5357 -1794 c32 -19 60 -34 62 -34 2 0 30 -15 62 -34 63 -36
126 -71 213 -119 30 -16 84 -47 120 -67 36 -21 92 -52 125 -70 33 -18 110 -61
170 -95 141 -79 198 -111 261 -146 117 -63 241 -133 264 -150 14 -9 30 -18 35
-19 10 -2 51 -25 158 -86 32 -19 63 -34 68 -34 5 0 9 -3 9 -8 0 -4 15 -14 33
-21 17 -8 73 -38 122 -66 50 -28 103 -57 118 -65 25 -12 26 -15 10 -21 -10 -4
-34 -9 -53 -12 -19 -3 -55 -10 -80 -15 -25 -6 -56 -13 -70 -16 -14 -3 -36 -7
-50 -10 -14 -3 -41 -9 -60 -12 -19 -3 -60 -12 -90 -19 -30 -8 -68 -16 -85 -18
-16 -3 -50 -10 -75 -16 -25 -5 -60 -13 -79 -16 -19 -3 -37 -8 -40 -10 -4 -2
-27 -6 -51 -10 -47 -7 -50 -8 -90 -18 -23 -6 -36 -9 -115 -24 -47 -8 -60 -11
-60 -13 0 -1 -9 -3 -20 -5 -30 -4 -84 -15 -135 -26 -68 -16 -82 -19 -115 -23
-16 -2 -37 -7 -45 -10 -8 -3 -26 -7 -40 -10 -14 -2 -47 -9 -75 -16 -27 -6 -65
-13 -84 -16 -18 -2 -37 -6 -41 -9 -4 -3 -25 -7 -45 -11 -41 -6 -39 -6 -145
-29 -94 -21 -96 -21 -150 -31 -51 -9 -59 -11 -62 -14 -2 -1 -12 -3 -23 -5 -37
-6 -79 -15 -220 -44 -77 -17 -216 -46 -310 -65 -93 -20 -199 -42 -235 -50 -36
-8 -68 -12 -71 -10 -4 2 58 135 137 294 79 160 144 293 144 296 0 3 10 20 22
37 13 18 22 33 20 35 -1 1 82 172 185 380 103 207 188 379 188 382 1 3 32 66
70 141 l68 137 46 -26 c25 -13 72 -40 104 -58z m4434 -966 c65 -89 132 -180
148 -204 53 -75 159 -219 164 -224 4 -3 22 -27 41 -55 19 -27 38 -51 42 -53 4
-2 8 -10 8 -17 0 -7 3 -15 8 -17 6 -2 132 -171 192 -258 8 -12 21 -29 28 -38
7 -9 78 -107 158 -217 80 -110 155 -213 167 -229 12 -15 50 -67 85 -115 34
-47 88 -121 120 -165 31 -43 62 -85 67 -94 6 -9 18 -25 28 -36 10 -12 25 -33
33 -48 8 -16 19 -28 24 -28 6 0 10 -5 10 -11 0 -9 44 -70 89 -125 13 -16 1
-26 -15 -13 -7 6 -28 18 -46 28 -69 36 -193 104 -203 111 -5 4 -30 19 -55 32
-25 14 -61 34 -80 45 -19 11 -71 39 -115 63 -44 23 -84 46 -90 50 -9 6 -44 26
-190 106 -22 12 -137 75 -255 141 -118 66 -237 133 -265 148 -27 15 -84 47
-125 70 -42 24 -107 60 -145 81 -39 21 -92 50 -120 66 -27 16 -58 31 -67 34
-10 4 -18 10 -18 15 0 5 -5 9 -11 9 -10 0 -62 28 -229 123 -19 11 -53 30 -75
42 -22 12 -101 55 -175 97 -205 115 -229 128 -315 175 -44 24 -87 48 -95 53
-8 5 -35 20 -60 33 -25 13 -119 66 -210 117 -91 52 -175 99 -188 106 -26 13
-18 23 25 29 43 6 84 15 128 27 22 5 56 12 75 14 19 3 61 12 93 20 32 8 62 12
67 9 6 -3 10 -2 10 2 0 5 10 10 23 11 25 3 62 10 62 12 0 1 9 3 20 5 23 3 69
12 105 21 14 3 34 7 45 9 11 2 53 10 92 19 40 9 85 18 100 21 16 2 89 18 163
34 74 16 146 32 160 35 14 2 50 10 80 16 30 6 66 13 80 16 14 2 36 7 50 10 14
3 34 8 45 10 121 27 190 42 192 43 1 1 55 -72 120 -161z m-2068 -353 c73 -41
137 -75 142 -75 5 0 9 -5 9 -11 0 -5 4 -8 9 -5 5 3 14 -1 21 -9 7 -8 16 -15
21 -15 4 0 34 -15 66 -34 59 -34 117 -66 208 -116 28 -15 165 -91 305 -170
140 -78 284 -158 320 -178 76 -41 120 -66 175 -97 120 -69 153 -87 178 -98 15
-6 27 -15 27 -19 0 -4 5 -8 12 -8 6 0 45 -20 87 -44 88 -50 151 -85 241 -134
36 -20 77 -44 93 -54 15 -11 27 -16 27 -13 0 3 12 -2 28 -13 15 -10 56 -35 92
-54 36 -20 108 -60 160 -89 52 -30 109 -61 125 -69 17 -8 32 -17 35 -21 3 -3
21 -13 40 -22 19 -10 62 -33 95 -52 33 -19 83 -47 110 -61 28 -15 101 -56 163
-91 63 -36 132 -75 155 -87 176 -96 196 -108 161 -101 -10 2 -41 9 -69 14 -27
6 -138 28 -245 50 -107 22 -208 43 -225 46 -16 4 -50 11 -75 15 -25 5 -99 20
-165 34 -66 14 -131 27 -145 30 -14 2 -59 11 -100 20 -41 8 -86 17 -100 20
-91 17 -233 47 -239 50 -3 3 -27 7 -51 11 -25 3 -65 11 -90 17 -52 11 -67 14
-135 28 -27 5 -61 12 -75 15 -14 3 -35 7 -47 10 -13 3 -35 7 -50 10 -36 7
-121 24 -153 30 -74 16 -118 25 -140 30 -14 3 -38 8 -55 11 -16 3 -48 9 -70
14 -22 5 -54 11 -70 14 -17 3 -118 24 -225 46 -220 46 -284 59 -320 65 -14 2
-111 22 -216 44 -105 22 -202 42 -215 45 -96 19 -138 27 -164 32 -16 2 -39 8
-50 11 -11 3 -29 7 -40 9 -11 1 -85 16 -165 33 -80 17 -157 32 -173 35 -15 3
-35 7 -45 10 -19 6 -57 13 -112 22 -19 3 -43 7 -52 10 -9 3 -27 7 -40 9 -20 4
-68 14 -143 29 -11 3 -54 12 -95 21 -41 9 -86 18 -100 20 -14 2 -38 6 -55 10
-45 10 -168 36 -185 39 -73 15 -97 20 -110 23 -8 2 -26 5 -40 8 -14 2 -58 11
-97 19 -40 9 -85 18 -100 21 -34 6 -63 12 -128 25 -27 6 -60 12 -73 15 -13 2
-31 7 -40 9 -10 3 -31 8 -47 10 -39 6 -74 13 -160 32 -38 9 -88 18 -109 20
-22 3 -44 8 -48 10 -5 3 -21 7 -36 10 -15 2 -47 9 -72 14 -25 5 -58 12 -75 15
-16 4 -34 7 -40 9 -5 1 -43 8 -83 16 -67 12 -78 16 -60 20 4 1 22 6 40 11 31
9 47 12 122 25 16 3 32 6 35 8 3 2 22 7 41 10 32 5 99 18 160 32 73 16 168 36
190 40 14 2 57 11 96 20 39 8 77 16 85 18 8 1 28 5 44 9 17 4 41 9 55 11 14 3
69 14 124 25 54 12 108 23 120 26 11 2 32 6 46 10 14 3 34 7 45 9 11 2 67 14
125 26 58 12 112 23 120 25 120 25 384 79 570 119 8 2 33 7 55 11 22 5 45 9
50 11 10 2 197 41 241 50 35 7 217 45 239 50 11 2 34 7 50 9 17 3 44 10 60 14
50 15 56 13 194 -64z"/>
</g>
</svg>
